<svg width="540" height="645" viewBox="0 0 540 645" fill="none" xmlns="http://www.w3.org/2000/svg">
<path d="M490.58 284.29C490.58 466.515 256.29 622.708 256.29 622.708C256.29 622.708 22 466.515 22 284.29C22 222.152 46.684 162.56 90.6219 118.622C134.56 74.684 194.152 50 256.29 50C318.427 50 378.02 74.684 421.958 118.622C465.896 162.56 490.58 222.152 490.58 284.29Z" fill="white" stroke="#3083DC" stroke-width="43.9293" stroke-linecap="round" stroke-linejoin="round"/>
<path d="M200.958 266.85L162.301 379H138.929L187.628 249.609H202.558L200.958 266.85ZM233.306 379L194.56 266.85L192.871 249.609H207.89L256.767 379H233.306ZM231.439 331.012V348.696H161.057V331.012H231.439ZM346.256 336.877H368.473C367.762 345.349 365.392 352.903 361.363 359.538C357.335 366.114 351.677 371.298 344.39 375.09C337.103 378.882 328.245 380.777 317.818 380.777C309.82 380.777 302.622 379.355 296.224 376.512C289.825 373.609 284.345 369.521 279.783 364.248C275.221 358.916 271.726 352.488 269.297 344.964C266.927 337.44 265.742 329.027 265.742 319.726V308.973C265.742 299.671 266.957 291.258 269.386 283.734C271.874 276.21 275.429 269.782 280.05 264.45C284.671 259.059 290.21 254.941 296.668 252.098C303.185 249.254 310.502 247.832 318.618 247.832C328.927 247.832 337.636 249.728 344.745 253.52C351.854 257.311 357.364 262.554 361.274 269.249C365.244 275.944 367.673 283.616 368.562 292.266H346.345C345.752 286.697 344.449 281.927 342.435 277.958C340.479 273.989 337.576 270.967 333.726 268.894C329.875 266.761 324.839 265.694 318.618 265.694C313.523 265.694 309.08 266.642 305.288 268.538C301.496 270.434 298.327 273.218 295.779 276.892C293.232 280.565 291.306 285.097 290.003 290.488C288.759 295.82 288.137 301.923 288.137 308.795V319.726C288.137 326.243 288.7 332.167 289.825 337.499C291.01 342.772 292.787 347.304 295.157 351.096C297.586 354.887 300.667 357.82 304.399 359.894C308.132 361.967 312.605 363.004 317.818 363.004C324.158 363.004 329.282 361.997 333.192 359.982C337.162 357.968 340.154 355.035 342.168 351.185C344.242 347.274 345.604 342.505 346.256 336.877Z" fill="#0C0A3E"/>
<circle cx="430" cy="110" r="102.645" fill="#2FDE13" stroke="white" stroke-width="14.7092"/>
</svg>
