<svg width="21" height="19" viewBox="0 0 21 19" fill="none" xmlns="http://www.w3.org/2000/svg">
<path d="M12.9201 13.9821C13.8197 13.9821 14.5491 13.27 14.5491 12.3915C14.5491 11.513 13.8197 10.8008 12.9201 10.8008C12.0204 10.8008 11.291 11.513 11.291 12.3915C11.291 13.27 12.0204 13.9821 12.9201 13.9821Z" stroke="#0E1C36" stroke-width="0.4"/>
<path d="M7.70033 13.9821C8.60002 13.9821 9.32936 13.27 9.32936 12.3915C9.32936 11.513 8.60002 10.8008 7.70033 10.8008C6.80063 10.8008 6.07129 11.513 6.07129 12.3915C6.07129 13.27 6.80063 13.9821 7.70033 13.9821Z" stroke="#0E1C36" stroke-width="0.4"/>
<path d="M5.2472 9.68722C6.14689 9.68722 6.87624 8.97505 6.87624 8.09654C6.87624 7.21803 6.14689 6.50586 5.2472 6.50586C4.34751 6.50586 3.61816 7.21803 3.61816 8.09654C3.61816 8.97505 4.34751 9.68722 5.2472 9.68722Z" stroke="#0E1C36" stroke-width="0.4"/>
<path d="M10.3097 9.68722C11.2094 9.68722 11.9387 8.97505 11.9387 8.09654C11.9387 7.21803 11.2094 6.50586 10.3097 6.50586C9.41001 6.50586 8.68066 7.21803 8.68066 8.09654C8.68066 8.97505 9.41001 9.68722 10.3097 9.68722Z" stroke="#0E1C36" stroke-width="0.4"/>
<path d="M15.297 9.68722C16.1967 9.68722 16.926 8.97505 16.926 8.09654C16.926 7.21803 16.1967 6.50586 15.297 6.50586C14.3973 6.50586 13.668 7.21803 13.668 8.09654C13.668 8.97505 14.3973 9.68722 15.297 9.68722Z" stroke="#0E1C36" stroke-width="0.4"/>
<path d="M12.8797 5.83223C13.5365 5.83223 14.069 5.28259 14.069 4.60459C14.069 3.92658 13.5365 3.37695 12.8797 3.37695C12.2229 3.37695 11.6904 3.92658 11.6904 4.60459C11.6904 5.28259 12.2229 5.83223 12.8797 5.83223Z" stroke="#0E1C36" stroke-width="0.4"/>
<path d="M7.89241 5.83223C8.54923 5.83223 9.08169 5.28259 9.08169 4.60459C9.08169 3.92658 8.54923 3.37695 7.89241 3.37695C7.23558 3.37695 6.70312 3.92658 6.70312 4.60459C6.70312 5.28259 7.23558 5.83223 7.89241 5.83223Z" stroke="#0E1C36" stroke-width="0.4"/>
<path fill-rule="evenodd" clip-rule="evenodd" d="M5.15019 1H15.5831C15.5831 1 16.677 1.73972 17.1379 2.248C17.5988 2.75627 18.0378 3.43966 18.3447 3.99177C18.6516 4.54387 18.9002 5.03839 19.1118 5.67946C19.3235 6.32052 19.5174 6.98846 19.5721 7.82741C19.6268 8.66636 19.5473 9.81429 19.342 10.6658C19.1367 11.5172 18.7553 12.2921 18.4214 12.8904C18.0876 13.4887 17.8431 13.7919 17.4242 14.2713C17.0053 14.7506 16.4548 15.2911 15.8899 15.7288C15.3251 16.1664 14.7307 16.567 14.0488 16.8795C13.367 17.192 11.8242 17.5699 11.8242 17.5699C11.8242 17.5699 9.73509 17.8501 8.06526 17.263C7.40154 17.0297 6.96661 16.9502 6.22416 16.5726C5.29409 16.0997 4.39831 15.5001 3.69265 14.7315C2.72281 13.6752 1.94554 12.4015 1.46799 11.0493C1.08984 9.97861 0.965997 8.80874 1.00772 7.67398C1.03941 6.81195 1.24102 5.94986 1.5447 5.14247C1.80264 4.45669 2.24032 3.79705 2.61868 3.22466C2.98879 2.66473 3.64051 2.05089 4.07621 1.69041C4.51192 1.32994 5.15019 1 5.15019 1V1Z" stroke="#0E1C36" stroke-linejoin="round"/>
</svg>
