<svg width="513" height="617" viewBox="0 0 513 617" fill="none" xmlns="http://www.w3.org/2000/svg">
<path d="M490.58 256.29C490.58 438.515 256.29 594.708 256.29 594.708C256.29 594.708 22 438.515 22 256.29C22 194.152 46.684 134.56 90.6219 90.6219C134.56 46.684 194.152 22 256.29 22C318.427 22 378.02 46.684 421.958 90.6219C465.896 134.56 490.58 194.152 490.58 256.29Z" fill="#3083DC" stroke="#3083DC" stroke-width="43.9293" stroke-linecap="round" stroke-linejoin="round"/>
<path d="M200.958 238.85L162.301 351H138.929L187.628 221.609H202.558L200.958 238.85ZM233.306 351L194.56 238.85L192.871 221.609H207.89L256.767 351H233.306ZM231.439 303.012V320.696H161.057V303.012H231.439ZM346.256 308.877H368.473C367.762 317.349 365.392 324.903 361.363 331.538C357.335 338.114 351.677 343.298 344.39 347.09C337.103 350.882 328.245 352.777 317.818 352.777C309.82 352.777 302.622 351.355 296.224 348.512C289.825 345.609 284.345 341.521 279.783 336.248C275.221 330.916 271.726 324.488 269.297 316.964C266.927 309.44 265.742 301.027 265.742 291.726V280.973C265.742 271.671 266.957 263.258 269.386 255.734C271.874 248.21 275.429 241.782 280.05 236.45C284.671 231.059 290.21 226.941 296.668 224.098C303.185 221.254 310.502 219.832 318.618 219.832C328.927 219.832 337.636 221.728 344.745 225.52C351.854 229.311 357.364 234.554 361.274 241.249C365.244 247.944 367.673 255.616 368.562 264.266H346.345C345.752 258.697 344.449 253.927 342.435 249.958C340.479 245.989 337.576 242.967 333.726 240.894C329.875 238.761 324.839 237.694 318.618 237.694C313.523 237.694 309.08 238.642 305.288 240.538C301.496 242.434 298.327 245.218 295.779 248.892C293.232 252.565 291.306 257.097 290.003 262.488C288.759 267.82 288.137 273.923 288.137 280.795V291.726C288.137 298.243 288.7 304.167 289.825 309.499C291.01 314.772 292.787 319.304 295.157 323.096C297.586 326.887 300.667 329.82 304.399 331.894C308.132 333.967 312.605 335.004 317.818 335.004C324.158 335.004 329.282 333.997 333.192 331.982C337.162 329.968 340.154 327.035 342.168 323.185C344.242 319.274 345.604 314.505 346.256 308.877Z" fill="white"/>
</svg>
