<svg width="540" height="645" viewBox="0 0 540 645" fill="none" xmlns="http://www.w3.org/2000/svg">
<path d="M490.58 284.29C490.58 466.515 256.29 622.708 256.29 622.708C256.29 622.708 22 466.515 22 284.29C22 222.152 46.684 162.56 90.6219 118.622C134.56 74.684 194.152 50 256.29 50C318.427 50 378.02 74.684 421.958 118.622C465.896 162.56 490.58 222.152 490.58 284.29Z" fill="#01388F" stroke="#01388F" stroke-width="43.9293" stroke-linecap="round" stroke-linejoin="round"/>
<path d="M187.839 379H160.201L160.379 361.315H187.839C195.837 361.315 202.532 359.568 207.923 356.072C213.373 352.577 217.461 347.571 220.187 341.054C222.971 334.537 224.363 326.776 224.363 317.771V310.75C224.363 303.759 223.563 297.568 221.964 292.177C220.424 286.785 218.113 282.253 215.032 278.58C212.011 274.907 208.278 272.122 203.835 270.227C199.451 268.331 194.385 267.383 188.639 267.383H159.668V249.609H188.639C197.229 249.609 205.079 251.061 212.188 253.964C219.298 256.808 225.43 260.925 230.584 266.316C235.798 271.708 239.797 278.165 242.581 285.689C245.366 293.214 246.758 301.626 246.758 310.928V317.771C246.758 327.072 245.366 335.485 242.581 343.009C239.797 350.533 235.798 356.991 230.584 362.382C225.37 367.714 219.15 371.831 211.922 374.734C204.753 377.578 196.726 379 187.839 379ZM172.554 249.609V379H150.248V249.609H172.554ZM345.578 336.877H367.795C367.084 345.349 364.714 352.903 360.686 359.538C356.657 366.114 350.999 371.298 343.712 375.09C336.425 378.882 327.568 380.777 317.141 380.777C309.143 380.777 301.944 379.355 295.546 376.512C289.147 373.609 283.667 369.521 279.105 364.248C274.544 358.916 271.048 352.488 268.619 344.964C266.249 337.44 265.064 329.027 265.064 319.726V308.973C265.064 299.671 266.279 291.258 268.708 283.734C271.196 276.21 274.751 269.782 279.372 264.45C283.993 259.059 289.533 254.941 295.99 252.098C302.507 249.254 309.824 247.832 317.94 247.832C328.249 247.832 336.958 249.728 344.067 253.52C351.177 257.311 356.687 262.554 360.597 269.249C364.566 275.944 366.995 283.616 367.884 292.266H345.667C345.075 286.697 343.771 281.927 341.757 277.958C339.802 273.989 336.899 270.967 333.048 268.894C329.197 266.761 324.161 265.694 317.94 265.694C312.845 265.694 308.402 266.642 304.61 268.538C300.819 270.434 297.649 273.218 295.102 276.892C292.554 280.565 290.629 285.097 289.325 290.488C288.081 295.82 287.459 301.923 287.459 308.795V319.726C287.459 326.243 288.022 332.167 289.147 337.499C290.332 342.772 292.11 347.304 294.479 351.096C296.909 354.887 299.989 357.82 303.722 359.894C307.454 361.967 311.927 363.004 317.141 363.004C323.48 363.004 328.604 361.997 332.515 359.982C336.484 357.968 339.476 355.035 341.49 351.185C343.564 347.274 344.926 342.505 345.578 336.877Z" fill="white"/>
<circle cx="430" cy="110" r="102.645" fill="#2FDE13" stroke="white" stroke-width="14.7092"/>
</svg>
