<svg width="14" height="20" viewBox="0 0 14 20" fill="none" xmlns="http://www.w3.org/2000/svg">
<path d="M8.17355 9.82433C8.76128 9.82433 9.23773 9.3591 9.23773 8.78521C9.23773 8.21132 8.76128 7.74609 8.17355 7.74609C7.58582 7.74609 7.10938 8.21132 7.10938 8.78521C7.10938 9.3591 7.58582 9.82433 8.17355 9.82433Z" stroke="#0E1C36" stroke-width="0.4"/>
<path d="M5.15988 9.47863C5.74761 9.47863 6.22406 9.0134 6.22406 8.43951C6.22406 7.86562 5.74761 7.40039 5.15988 7.40039C4.57215 7.40039 4.0957 7.86562 4.0957 8.43951C4.0957 9.0134 4.57215 9.47863 5.15988 9.47863Z" stroke="#0E1C36" stroke-width="0.4"/>
<path d="M3.55734 6.67199C4.14507 6.67199 4.62152 6.20676 4.62152 5.63287C4.62152 5.05898 4.14507 4.59375 3.55734 4.59375C2.96961 4.59375 2.49316 5.05898 2.49316 5.63287C2.49316 6.20676 2.96961 6.67199 3.55734 6.67199Z" stroke="#0E1C36" stroke-width="0.4"/>
<path d="M6.86398 6.67199C7.45171 6.67199 7.92816 6.20676 7.92816 5.63287C7.92816 5.05898 7.45171 4.59375 6.86398 4.59375C6.27625 4.59375 5.7998 5.05898 5.7998 5.63287C5.7998 6.20676 6.27625 6.67199 6.86398 6.67199Z" stroke="#0E1C36" stroke-width="0.4"/>
<path d="M10.1198 6.67199C10.7076 6.67199 11.184 6.20676 11.184 5.63287C11.184 5.05898 10.7076 4.59375 10.1198 4.59375C9.53211 4.59375 9.05566 5.05898 9.05566 5.63287C9.05566 6.20676 9.53211 6.67199 10.1198 6.67199Z" stroke="#0E1C36" stroke-width="0.4"/>
<path d="M8.5435 4.15275C8.97258 4.15275 9.32041 3.7937 9.32041 3.35079C9.32041 2.90788 8.97258 2.54883 8.5435 2.54883C8.11443 2.54883 7.7666 2.90788 7.7666 3.35079C7.7666 3.7937 8.11443 4.15275 8.5435 4.15275Z" stroke="#0E1C36" stroke-width="0.4"/>
<path d="M5.28472 4.15275C5.71379 4.15275 6.06162 3.7937 6.06162 3.35079C6.06162 2.90788 5.71379 2.54883 5.28472 2.54883C4.85564 2.54883 4.50781 2.90788 4.50781 3.35079C4.50781 3.7937 4.85564 4.15275 5.28472 4.15275Z" stroke="#0E1C36" stroke-width="0.4"/>
<path fill-rule="evenodd" clip-rule="evenodd" d="M3.49238 0.998047H10.3077C10.3077 0.998047 11.0224 1.48127 11.3234 1.81331C11.6245 2.14534 11.9113 2.59177 12.1118 2.95243C12.3122 3.3131 12.4746 3.63615 12.6129 4.05493C12.7511 4.4737 12.8779 4.91003 12.9136 5.45808C12.9493 6.00613 12.8974 6.75602 12.7632 7.31225C12.6291 7.86848 12.38 8.37467 12.1619 8.76552C11.9438 9.15638 11.7841 9.35444 11.5104 9.66755C11.2368 9.98067 10.8772 10.3338 10.5082 10.6197C10.1392 10.9056 9.75089 11.1672 9.30546 11.3714C8.86003 11.5755 7.85219 11.8224 7.85219 11.8224C7.85219 11.8224 6.48749 12.0054 5.39666 11.6219C4.96308 11.4695 4.67896 11.4176 4.19396 11.1709C3.58639 10.862 3.00121 10.4703 2.54024 9.96823C1.90668 9.27818 1.39893 8.44613 1.08697 7.56282C0.839937 6.86337 0.759037 6.09914 0.78629 5.35786C0.806993 4.79473 0.9387 4.23157 1.13708 3.70414C1.30558 3.25615 1.5915 2.82523 1.83866 2.45132C2.08044 2.08554 2.50617 1.68454 2.7908 1.44906C3.07543 1.21358 3.49238 0.998047 3.49238 0.998047V0.998047Z" stroke="#0E1C36" stroke-linejoin="round"/>
<path d="M4.6784 16.9683C5.29307 16.9683 5.79137 16.4625 5.79137 15.8386C5.79137 15.2147 5.29307 14.709 4.6784 14.709C4.06372 14.709 3.56543 15.2147 3.56543 15.8386C3.56543 16.4625 4.06372 16.9683 4.6784 16.9683Z" stroke="#0E1C36" stroke-width="0.4"/>
<path d="M9.23699 16.9683C9.85167 16.9683 10.35 16.4625 10.35 15.8386C10.35 15.2147 9.85167 14.709 9.23699 14.709C8.62232 14.709 8.12402 15.2147 8.12402 15.8386C8.12402 16.4625 8.62232 16.9683 9.23699 16.9683Z" stroke="#0E1C36" stroke-width="0.4"/>
<path d="M10.1703 12.9004H3.90616C2.22185 12.9004 0.856445 14.2658 0.856445 15.9501C0.856445 17.6344 2.22185 18.9998 3.90616 18.9998H10.1703C11.8546 18.9998 13.22 17.6344 13.22 15.9501C13.22 14.2658 11.8546 12.9004 10.1703 12.9004Z" stroke="#0E1C36" stroke-linecap="round" stroke-linejoin="round"/>
<path d="M5.83691 12.1152L8.36733 12.1152" stroke="#0E1C36"/>
</svg>
