<svg width="513" height="617" viewBox="0 0 513 617" fill="none" xmlns="http://www.w3.org/2000/svg">
<path d="M490.58 256.29C490.58 438.515 256.29 594.708 256.29 594.708C256.29 594.708 22 438.515 22 256.29C22 194.152 46.684 134.56 90.6219 90.6219C134.56 46.684 194.152 22 256.29 22C318.427 22 378.02 46.684 421.958 90.6219C465.896 134.56 490.58 194.152 490.58 256.29Z" fill="#01388F" stroke="#01388F" stroke-width="43.9293" stroke-linecap="round" stroke-linejoin="round"/>
<path d="M187.839 351H160.201L160.379 333.315H187.839C195.837 333.315 202.532 331.568 207.923 328.072C213.373 324.577 217.461 319.571 220.187 313.054C222.971 306.537 224.363 298.776 224.363 289.771V282.75C224.363 275.759 223.563 269.568 221.964 264.177C220.424 258.785 218.113 254.253 215.032 250.58C212.011 246.907 208.278 244.122 203.835 242.227C199.451 240.331 194.385 239.383 188.639 239.383H159.668V221.609H188.639C197.229 221.609 205.079 223.061 212.188 225.964C219.298 228.808 225.43 232.925 230.584 238.316C235.798 243.708 239.797 250.165 242.581 257.689C245.366 265.214 246.758 273.626 246.758 282.928V289.771C246.758 299.072 245.366 307.485 242.581 315.009C239.797 322.533 235.798 328.991 230.584 334.382C225.37 339.714 219.15 343.831 211.922 346.734C204.753 349.578 196.726 351 187.839 351ZM172.554 221.609V351H150.248V221.609H172.554ZM345.578 308.877H367.795C367.084 317.349 364.714 324.903 360.686 331.538C356.657 338.114 350.999 343.298 343.712 347.09C336.425 350.882 327.568 352.777 317.141 352.777C309.143 352.777 301.944 351.355 295.546 348.512C289.147 345.609 283.667 341.521 279.105 336.248C274.544 330.916 271.048 324.488 268.619 316.964C266.249 309.44 265.064 301.027 265.064 291.726V280.973C265.064 271.671 266.279 263.258 268.708 255.734C271.196 248.21 274.751 241.782 279.372 236.45C283.993 231.059 289.533 226.941 295.99 224.098C302.507 221.254 309.824 219.832 317.94 219.832C328.249 219.832 336.958 221.728 344.067 225.52C351.177 229.311 356.687 234.554 360.597 241.249C364.566 247.944 366.995 255.616 367.884 264.266H345.667C345.075 258.697 343.771 253.927 341.757 249.958C339.802 245.989 336.899 242.967 333.048 240.894C329.197 238.761 324.161 237.694 317.94 237.694C312.845 237.694 308.402 238.642 304.61 240.538C300.819 242.434 297.649 245.218 295.102 248.892C292.554 252.565 290.629 257.097 289.325 262.488C288.081 267.82 287.459 273.923 287.459 280.795V291.726C287.459 298.243 288.022 304.167 289.147 309.499C290.332 314.772 292.11 319.304 294.479 323.096C296.909 326.887 299.989 329.82 303.722 331.894C307.454 333.967 311.927 335.004 317.141 335.004C323.48 335.004 328.604 333.997 332.515 331.982C336.484 329.968 339.476 327.035 341.49 323.185C343.564 319.274 344.926 314.505 345.578 308.877Z" fill="white"/>
</svg>
