<svg width="17" height="17" viewBox="0 0 17 17" fill="none" xmlns="http://www.w3.org/2000/svg">
<path d="M0.5 2.5C0.5 1.25736 1.50736 0.25 2.75 0.25H11.25C12.4926 0.25 13.5 1.25736 13.5 2.5V10.25H17V13.5C17 15.2949 15.5449 16.75 13.75 16.75H3.75C1.95507 16.75 0.5 15.2949 0.5 13.5V2.5ZM13.5 11.75V15.25H13.75C14.7165 15.25 15.5 14.4665 15.5 13.5V11.75H13.5ZM12 15.25V2.5C12 2.08579 11.6642 1.75 11.25 1.75H2.75C2.33579 1.75 2 2.08579 2 2.5V13.5C2 14.4665 2.7835 15.25 3.75 15.25H12Z" fill="#0AC2A2"/>
<path d="M3.5 5C3.5 4.58579 3.83579 4.25 4.25 4.25H9.74999C10.1642 4.25 10.5 4.58579 10.5 5C10.5 5.41422 10.1642 5.75 9.74999 5.75H4.25C3.83579 5.75 3.5 5.41422 3.5 5ZM3.5 8.5C3.5 8.0858 3.83579 7.75 4.25 7.75H9.74999C10.1642 7.75 10.5 8.0858 10.5 8.5C10.5 8.9142 10.1642 9.25 9.74999 9.25H4.25C3.83579 9.25 3.5 8.9142 3.5 8.5ZM3.5 12C3.5 11.5858 3.83579 11.25 4.25 11.25H6.74999C7.16419 11.25 7.49999 11.5858 7.49999 12C7.49999 12.4142 7.16419 12.75 6.74999 12.75H4.25C3.83579 12.75 3.5 12.4142 3.5 12Z" fill="#0AC2A2"/>
</svg>
