<svg width="19" height="22" viewBox="0 0 19 22" fill="none" xmlns="http://www.w3.org/2000/svg">
<path d="M10.2103 12.5742H8.63949C6.34816 12.5742 4.15067 13.4844 2.53045 15.1047C0.91023 16.7249 0 18.9224 0 21.2137C0 21.422 0.0827483 21.6218 0.230041 21.7691C0.377334 21.9164 0.577105 21.9991 0.785408 21.9991H18.0644C18.2727 21.9991 18.4725 21.9164 18.6198 21.7691C18.7671 21.6218 18.8498 21.422 18.8498 21.2137C18.8498 18.9224 17.9396 16.7249 16.3194 15.1047C14.6991 13.4844 12.5016 12.5742 10.2103 12.5742ZM1.61794 20.4283C1.81107 18.7009 2.63388 17.1052 3.92915 15.9462C5.22442 14.7871 6.90134 14.1459 8.63949 14.145H10.2103C11.9485 14.1459 13.6254 14.7871 14.9207 15.9462C16.2159 17.1052 17.0387 18.7009 17.2319 20.4283H1.61794Z" fill="#8491A5"/>
<path d="M9.42462 10.9957C10.512 10.9957 11.5749 10.6733 12.4791 10.0692C13.3832 9.46505 14.0879 8.6064 14.504 7.6018C14.9201 6.5972 15.029 5.49176 14.8168 4.42528C14.6047 3.3588 14.0811 2.37918 13.3122 1.61029C12.5433 0.841398 11.5637 0.317778 10.4972 0.105642C9.43072 -0.106494 8.32528 0.00238213 7.32068 0.418502C6.31607 0.834622 5.45743 1.5393 4.85331 2.44341C4.2492 3.34753 3.92676 4.41049 3.92676 5.49786C3.92676 6.95598 4.506 8.35438 5.53704 9.38543C6.56809 10.4165 7.96649 10.9957 9.42462 10.9957ZM9.42462 1.57082C10.2013 1.57082 10.9606 1.80114 11.6064 2.23264C12.2522 2.66415 12.7555 3.27747 13.0527 3.99505C13.35 4.71262 13.4277 5.50222 13.2762 6.26399C13.1247 7.02576 12.7507 7.72549 12.2015 8.2747C11.6522 8.8239 10.9525 9.19792 10.1907 9.34944C9.42897 9.50097 8.63938 9.4232 7.9218 9.12597C7.20423 8.82874 6.59091 8.32541 6.1594 7.67961C5.72789 7.03381 5.49757 6.27456 5.49757 5.49786C5.49757 4.45634 5.91131 3.45749 6.64778 2.72102C7.38424 1.98456 8.3831 1.57082 9.42462 1.57082Z" fill="#8491A5"/>
</svg>
