<svg width="11" height="19" viewBox="0 0 11 19" fill="none" xmlns="http://www.w3.org/2000/svg">
<path d="M5.82183 7.30672L7.28618 1.15647C7.31695 1.02721 7.29257 0.890976 7.21886 0.780421C7.10675 0.612255 6.90103 0.532721 6.70496 0.58174L6.65115 0.595193C6.50757 0.631087 6.38418 0.722649 6.30823 0.849664L0.981442 9.7572L0.372112 10.9295C0.227054 11.2085 0.429559 11.542 0.744079 11.542H0.981442H4.91427L3.44865 17.8442C3.41867 17.9731 3.44331 18.1087 3.51673 18.2188C3.62915 18.3874 3.83543 18.4672 4.03204 18.418L4.08525 18.4047C4.22866 18.3689 4.35196 18.2775 4.42801 18.1508L10.2084 8.51681L10.525 7.92321C10.6739 7.64397 10.4715 7.30672 10.1551 7.30672H9.45208H5.82183Z" fill="#FED000"/>
</svg>
