<svg width="24" height="24" viewBox="0 0 24 24" fill="none" xmlns="http://www.w3.org/2000/svg">
<path d="M21.0299 6.72283L17.9663 20.2855C17.7481 21.2979 16.93 21.9996 15.9845 21.9996H4.03914C2.66642 21.9996 1.68462 20.516 2.0937 19.0625L5.92095 5.50995C6.18458 4.56768 6.9755 3.91602 7.86641 3.91602H19.0481C19.9118 3.91602 20.6299 4.49743 20.9299 5.29936C21.1027 5.7304 21.139 6.22162 21.0299 6.72283Z" stroke="#8491A5" stroke-width="1.5" stroke-miterlimit="10"/>
<path d="M15.6396 21.9985H19.9848C21.1574 21.9985 22.0756 20.906 21.9937 19.6129L21.0938 5.96094" stroke="#8491A5" stroke-width="1.5" stroke-miterlimit="10" stroke-linecap="round" stroke-linejoin="round"/>
<path d="M9.89258 6.34181L10.8386 2.01172" stroke="#8491A5" stroke-width="1.5" stroke-miterlimit="10" stroke-linecap="round" stroke-linejoin="round"/>
<path d="M15.9854 6.35015L16.8404 2" stroke="#8491A5" stroke-width="1.5" stroke-miterlimit="10" stroke-linecap="round" stroke-linejoin="round"/>
<path d="M8.09473 11.9746H15.3669" stroke="#8491A5" stroke-width="1.5" stroke-miterlimit="10" stroke-linecap="round" stroke-linejoin="round"/>
<path d="M7.18457 15.9844H14.4568" stroke="#8491A5" stroke-width="1.5" stroke-miterlimit="10" stroke-linecap="round" stroke-linejoin="round"/>
</svg>
